<?xml version="1.0" encoding="UTF-8"?>
<svg xmlns="http://www.w3.org/2000/svg" viewBox="0 0 444.41 543.26">
  <defs>
    <style>
      .cls-1 {
        fill: #13e52c;
      }

      .cls-2 {
        fill: #0dde2d;
      }

      .cls-3 {
        fill: #fff;
      }

      .cls-4 {
        fill: #3fa535;
      }
    </style>
  </defs>
  <g id="Meine-Logo">
    <path id="Feder" class="cls-4" d="M276.88,130.79h13.72v113.53s-59.34,56.02-93.98,138.96v-64.54s9.08-11.26,5.17-18.06c-2.11-3.66-6.98-5.18-11-4.92-1.11.07-5.28.49-7.89,3.43-3.81,4.31-3.24,12.87,2.74,19.89l1.03,64.19s-50.76-119.41-94.66-136.56v-115.93h14.06l.69,101.18s48.02.69,84.55,40.13c0,0,45.6-44.24,86.6-38.41l-1.03-102.9Z"/>
  </g>
  <g id="Name">
    <g id="Text-name">
      <path class="cls-4" d="M62.14,518.62c.42,1.28.69,2.29.79,3.03.11.74-.04,1.3-.42,1.68-.39.37-1.08.6-2.06.69-.99.09-2.34.13-4.07.13s-3.2-.03-4.2-.08c-1-.05-1.77-.16-2.3-.32-.53-.16-.9-.38-1.11-.67-.21-.28-.39-.66-.53-1.12l-4.6-13.84h-25.69l-4.33,13.47c-.14.5-.33.91-.56,1.25-.23.34-.6.6-1.11.8-.51.2-1.23.33-2.17.4-.93.07-2.16.11-3.67.11-1.62,0-2.89-.05-3.81-.16-.92-.11-1.55-.36-1.9-.77-.35-.41-.48-.98-.37-1.73.11-.75.37-1.74.79-2.98l21.09-61.1c.21-.6.46-1.09.74-1.46.28-.37.73-.66,1.35-.85.62-.19,1.47-.32,2.56-.37,1.09-.05,2.54-.08,4.33-.08,2.08,0,3.73.03,4.97.08,1.23.05,2.19.18,2.88.37.69.2,1.18.49,1.48.88.3.39.56.92.77,1.6l21.14,61.05ZM30.75,468.11h-.05l-9.67,29.27h19.4l-9.67-29.27Z"/>
      <path class="cls-4" d="M84.23,522.03c0,.36-.11.67-.32.93-.21.27-.57.49-1.08.67-.51.18-1.19.31-2.04.4-.85.09-1.92.13-3.22.13s-2.38-.04-3.22-.13c-.85-.09-1.52-.22-2.03-.4-.51-.18-.87-.4-1.08-.67-.21-.27-.32-.58-.32-.93v-69.99c0-.35.11-.67.32-.96.21-.28.57-.52,1.08-.72.51-.2,1.19-.35,2.03-.45.85-.11,1.92-.16,3.22-.16s2.38.05,3.22.16c.85.11,1.52.26,2.04.45.51.2.87.43,1.08.72.21.29.32.6.32.96v69.99Z"/>
      <path class="cls-4" d="M111.82,458.48c0,2.7-.55,4.56-1.64,5.59-1.09,1.03-3.12,1.54-6.08,1.54s-5.01-.5-6.05-1.49c-1.04-.99-1.56-2.79-1.56-5.38s.54-4.57,1.61-5.61c1.07-1.05,3.11-1.57,6.1-1.57s4.97.51,6.03,1.52c1.06,1.01,1.59,2.81,1.59,5.4ZM110.82,522.03c0,.36-.11.67-.32.93-.21.27-.57.49-1.08.67-.51.18-1.19.31-2.04.4-.85.09-1.92.13-3.22.13s-2.38-.04-3.22-.13c-.85-.09-1.52-.22-2.03-.4-.51-.18-.87-.4-1.08-.67-.21-.27-.32-.58-.32-.93v-47.37c0-.35.11-.67.32-.93.21-.27.57-.5,1.08-.69.51-.2,1.19-.35,2.03-.45.85-.11,1.92-.16,3.22-.16s2.38.05,3.22.16c.85.11,1.52.26,2.04.45.51.2.87.43,1.08.69.21.27.32.58.32.93v47.37Z"/>
      <path class="cls-4" d="M187.72,504.51c0,3.23-.59,6.1-1.77,8.62-1.18,2.52-2.82,4.66-4.92,6.41-2.1,1.76-4.56,3.08-7.4,3.96-2.84.89-5.89,1.33-9.17,1.33-2.29,0-4.41-.2-6.37-.59-1.96-.39-3.7-.87-5.23-1.44-1.53-.57-2.82-1.15-3.86-1.76-1.04-.6-1.76-1.12-2.17-1.54-.41-.43-.71-.97-.9-1.62-.19-.66-.29-1.53-.29-2.63,0-.78.03-1.43.11-1.94.07-.51.18-.93.32-1.25.14-.32.32-.54.53-.67.21-.12.46-.19.74-.19.49,0,1.19.3,2.09.9.9.6,2.05,1.26,3.46,1.97,1.41.71,3.11,1.38,5.1,2,1.99.62,4.29.93,6.9.93,1.97,0,3.78-.27,5.42-.8,1.64-.53,3.05-1.29,4.23-2.26,1.18-.98,2.09-2.17,2.72-3.59s.95-3.03.95-4.84c0-1.95-.44-3.62-1.32-5-.88-1.38-2.04-2.6-3.49-3.65-1.45-1.05-3.09-2-4.94-2.87s-3.74-1.76-5.68-2.66c-1.94-.91-3.82-1.91-5.66-3.01-1.83-1.1-3.47-2.39-4.92-3.88-1.45-1.49-2.62-3.24-3.51-5.24s-1.35-4.41-1.35-7.21.52-5.44,1.56-7.69c1.04-2.25,2.48-4.14,4.33-5.67s4.05-2.69,6.61-3.49c2.55-.8,5.31-1.2,8.27-1.2,1.51,0,3.04.13,4.57.4,1.53.27,2.98.62,4.33,1.06,1.36.44,2.56.94,3.62,1.49,1.06.55,1.75.99,2.09,1.33.33.34.55.6.66.8.11.2.19.44.26.75.07.3.12.67.16,1.09.03.43.05.98.05,1.65,0,.64-.03,1.21-.08,1.7-.05.5-.13.91-.24,1.25-.11.34-.26.58-.45.75-.19.16-.41.24-.66.24-.39,0-1-.25-1.82-.75-.83-.5-1.84-1.06-3.04-1.68-1.2-.62-2.62-1.19-4.25-1.7-1.64-.51-3.48-.77-5.52-.77-1.9,0-3.56.26-4.97.77-1.41.51-2.57,1.2-3.49,2.05-.92.85-1.6,1.86-2.06,3.03-.46,1.17-.69,2.41-.69,3.73,0,1.92.44,3.57,1.32,4.95.88,1.38,2.05,2.61,3.51,3.67,1.46,1.06,3.13,2.04,5,2.93,1.87.89,3.77,1.78,5.71,2.69,1.94.9,3.84,1.9,5.71,2.98,1.87,1.08,3.53,2.36,4.99,3.83,1.46,1.47,2.64,3.21,3.54,5.22.9,2,1.35,4.37,1.35,7.1Z"/>
      <path class="cls-4" d="M235.56,522.56c0,.43-.14.75-.42.96-.28.21-.67.37-1.16.48-.49.11-1.22.16-2.17.16s-1.65-.05-2.19-.16c-.55-.11-.94-.27-1.19-.48-.25-.21-.37-.53-.37-.96v-4.79c-2.08,2.24-4.4,3.97-6.95,5.22-2.56,1.24-5.26,1.86-8.11,1.86-2.5,0-4.77-.33-6.79-.99-2.03-.66-3.75-1.6-5.18-2.85-1.43-1.24-2.54-2.77-3.33-4.58-.79-1.81-1.19-3.87-1.19-6.17,0-2.7.55-5.04,1.64-7.03,1.09-1.99,2.66-3.64,4.7-4.95,2.04-1.31,4.55-2.3,7.51-2.95,2.96-.66,6.29-.98,9.99-.98h6.55v-3.73c0-1.84-.19-3.48-.58-4.9-.39-1.42-1.01-2.6-1.88-3.54-.86-.94-1.98-1.65-3.36-2.13-1.37-.48-3.07-.72-5.07-.72-2.15,0-4.08.26-5.79.77-1.71.51-3.21,1.08-4.49,1.7-1.29.62-2.36,1.19-3.22,1.7-.86.51-1.51.77-1.93.77-.28,0-.53-.07-.74-.21-.21-.14-.4-.35-.55-.64-.16-.28-.27-.65-.34-1.09-.07-.44-.11-.93-.11-1.46,0-.89.06-1.59.18-2.1.12-.51.42-1,.9-1.46.48-.46,1.29-1,2.46-1.62,1.16-.62,2.5-1.19,4.02-1.7,1.51-.51,3.17-.94,4.97-1.28s3.61-.51,5.44-.51c3.42,0,6.32.39,8.72,1.17,2.4.78,4.33,1.92,5.81,3.43,1.48,1.51,2.55,3.38,3.22,5.62s1,4.84,1,7.82v32.31ZM226.89,500.68h-7.45c-2.4,0-4.48.21-6.24.61-1.76.41-3.22,1.01-4.39,1.81-1.16.8-2.02,1.76-2.56,2.87-.55,1.12-.82,2.4-.82,3.86,0,2.48.78,4.46,2.35,5.93,1.57,1.47,3.76,2.21,6.58,2.21,2.29,0,4.41-.58,6.37-1.76,1.96-1.17,4.01-2.96,6.16-5.38v-10.17Z"/>
      <path class="cls-4" d="M261.3,524.63c0,3.55-.26,6.41-.79,8.59-.53,2.18-1.36,4.02-2.48,5.51-1.13,1.49-2.57,2.62-4.33,3.38-1.76.76-3.89,1.14-6.4,1.14-1.13,0-2.09-.07-2.88-.21s-1.4-.3-1.82-.48c-.42-.18-.71-.38-.87-.61-.16-.23-.27-.5-.34-.8-.07-.3-.11-.61-.13-.93s-.03-.71-.03-1.17c0-.64.03-1.19.08-1.65.05-.46.14-.83.26-1.12.12-.28.26-.49.42-.61.16-.12.36-.19.61-.19.21,0,.63.04,1.24.13.62.09,1.33.13,2.14.13,1.16,0,2.16-.18,2.99-.53.83-.36,1.51-.93,2.04-1.73.53-.8.92-1.84,1.16-3.11.25-1.28.37-3.21.37-5.8v-49.98c0-.25.07-.48.21-.69.14-.21.38-.39.71-.53.33-.14.78-.25,1.35-.32.56-.07,1.27-.11,2.11-.11s1.55.04,2.11.11c.56.07,1.01.18,1.35.32.33.14.57.32.71.53.14.21.21.44.21.69v50.03ZM262.3,458.43c0,2.06-.39,3.46-1.16,4.2-.78.75-2.2,1.12-4.28,1.12s-3.44-.36-4.18-1.09c-.74-.73-1.11-2.1-1.11-4.12s.38-3.46,1.14-4.2c.76-.75,2.17-1.12,4.25-1.12s3.49.36,4.23,1.09c.74.73,1.11,2.1,1.11,4.12Z"/>
      <path class="cls-4" d="M313.31,522.56c0,.43-.14.75-.42.96-.28.21-.67.37-1.16.48-.49.11-1.22.16-2.17.16s-1.65-.05-2.19-.16c-.55-.11-.94-.27-1.19-.48-.25-.21-.37-.53-.37-.96v-4.79c-2.08,2.24-4.4,3.97-6.95,5.22-2.56,1.24-5.26,1.86-8.11,1.86-2.5,0-4.77-.33-6.79-.99-2.03-.66-3.75-1.6-5.18-2.85s-2.54-2.77-3.33-4.58c-.79-1.81-1.19-3.87-1.19-6.17,0-2.7.55-5.04,1.64-7.03,1.09-1.99,2.66-3.64,4.7-4.95,2.04-1.31,4.55-2.3,7.51-2.95,2.96-.66,6.29-.98,9.99-.98h6.55v-3.73c0-1.84-.19-3.48-.58-4.9-.39-1.42-1.01-2.6-1.88-3.54-.86-.94-1.98-1.65-3.36-2.13-1.37-.48-3.07-.72-5.07-.72-2.15,0-4.08.26-5.79.77-1.71.51-3.21,1.08-4.49,1.7-1.29.62-2.36,1.19-3.22,1.7-.86.51-1.51.77-1.93.77-.28,0-.53-.07-.74-.21-.21-.14-.4-.35-.55-.64-.16-.28-.27-.65-.34-1.09-.07-.44-.11-.93-.11-1.46,0-.89.06-1.59.18-2.1.12-.51.42-1,.9-1.46.48-.46,1.29-1,2.46-1.62s2.5-1.19,4.02-1.7,3.17-.94,4.97-1.28,3.61-.51,5.44-.51c3.42,0,6.32.39,8.72,1.17,2.4.78,4.33,1.92,5.81,3.43,1.48,1.51,2.55,3.38,3.22,5.62.67,2.24,1,4.84,1,7.82v32.31ZM304.64,500.68h-7.45c-2.4,0-4.48.21-6.24.61-1.76.41-3.22,1.01-4.39,1.81-1.16.8-2.02,1.76-2.56,2.87-.55,1.12-.82,2.4-.82,3.86,0,2.48.78,4.46,2.35,5.93,1.57,1.47,3.76,2.21,6.58,2.21,2.29,0,4.41-.58,6.37-1.76,1.96-1.17,4.01-2.96,6.16-5.38v-10.17Z"/>
      <path class="cls-4" d="M370.07,522.51c0,.28-.06.53-.18.74-.12.21-.34.38-.63.51-.3.12-.7.22-1.19.29-.49.07-1.09.11-1.8.11-.74,0-1.36-.04-1.85-.11-.49-.07-.9-.17-1.22-.29s-.55-.29-.69-.51-.21-.46-.21-.74v-6.33c-2.5,2.73-5.1,4.86-7.8,6.39-2.7,1.53-5.65,2.29-8.85,2.29-3.49,0-6.47-.68-8.93-2.05-2.47-1.37-4.47-3.21-6-5.54-1.53-2.32-2.65-5.06-3.36-8.2-.71-3.14-1.06-6.45-1.06-9.93,0-4.12.44-7.83,1.32-11.15.88-3.32,2.18-6.15,3.91-8.49s3.87-4.14,6.42-5.4,5.5-1.89,8.85-1.89c2.78,0,5.33.61,7.64,1.84,2.31,1.22,4.59,3.03,6.84,5.4v-27.83c0-.25.06-.49.18-.72.12-.23.36-.41.71-.53.35-.12.8-.23,1.35-.32.55-.09,1.24-.13,2.09-.13s1.6.04,2.17.13c.56.09,1,.2,1.32.32s.55.3.71.53c.16.23.24.47.24.72v70.89ZM361.3,488.81c-2.36-2.94-4.64-5.19-6.84-6.73-2.2-1.54-4.5-2.32-6.9-2.32-2.22,0-4.1.53-5.66,1.6s-2.81,2.47-3.78,4.2c-.97,1.74-1.67,3.71-2.11,5.91-.44,2.2-.66,4.44-.66,6.71,0,2.41.18,4.77.55,7.08s1.01,4.36,1.93,6.15c.92,1.79,2.13,3.23,3.65,4.31,1.51,1.08,3.42,1.62,5.71,1.62,1.16,0,2.28-.16,3.36-.48,1.08-.32,2.18-.85,3.3-1.6,1.13-.75,2.31-1.71,3.54-2.9,1.23-1.19,2.54-2.65,3.91-4.39v-19.16Z"/>
    </g>
  </g>
  <g id="Name_Kopie" data-name="Name Kopie">
    <g id="Text-name-2" data-name="Text-name">
      <path class="cls-1" d="M62.14,518.62c.42,1.28.69,2.29.79,3.03.11.74-.04,1.3-.42,1.68-.39.37-1.08.6-2.06.69-.99.09-2.34.13-4.07.13s-3.2-.03-4.2-.08c-1-.05-1.77-.16-2.3-.32-.53-.16-.9-.38-1.11-.67-.21-.28-.39-.66-.53-1.12l-4.6-13.84h-25.69l-4.33,13.47c-.14.5-.33.91-.56,1.25-.23.34-.6.6-1.11.8-.51.2-1.23.33-2.17.4-.93.07-2.16.11-3.67.11-1.62,0-2.89-.05-3.81-.16-.92-.11-1.55-.36-1.9-.77-.35-.41-.48-.98-.37-1.73.11-.75.37-1.74.79-2.98l21.09-61.1c.21-.6.46-1.09.74-1.46.28-.37.73-.66,1.35-.85.62-.19,1.47-.32,2.56-.37,1.09-.05,2.54-.08,4.33-.08,2.08,0,3.73.03,4.97.08,1.23.05,2.19.18,2.88.37.69.2,1.18.49,1.48.88.3.39.56.92.77,1.6l21.14,61.05ZM30.75,468.11h-.05l-9.67,29.27h19.4l-9.67-29.27Z"/>
      <path class="cls-1" d="M84.23,522.03c0,.36-.11.67-.32.93-.21.27-.57.49-1.08.67-.51.18-1.19.31-2.04.4-.85.09-1.92.13-3.22.13s-2.38-.04-3.22-.13c-.85-.09-1.52-.22-2.03-.4-.51-.18-.87-.4-1.08-.67-.21-.27-.32-.58-.32-.93v-69.99c0-.35.11-.67.32-.96.21-.28.57-.52,1.08-.72.51-.2,1.19-.35,2.03-.45.85-.11,1.92-.16,3.22-.16s2.38.05,3.22.16c.85.11,1.52.26,2.04.45.51.2.87.43,1.08.72.21.29.32.6.32.96v69.99Z"/>
      <path class="cls-1" d="M111.82,458.48c0,2.7-.55,4.56-1.64,5.59-1.09,1.03-3.12,1.54-6.08,1.54s-5.01-.5-6.05-1.49c-1.04-.99-1.56-2.79-1.56-5.38s.54-4.57,1.61-5.61c1.07-1.05,3.11-1.57,6.1-1.57s4.97.51,6.03,1.52c1.06,1.01,1.59,2.81,1.59,5.4ZM110.82,522.03c0,.36-.11.67-.32.93-.21.27-.57.49-1.08.67-.51.18-1.19.31-2.04.4-.85.09-1.92.13-3.22.13s-2.38-.04-3.22-.13c-.85-.09-1.52-.22-2.03-.4-.51-.18-.87-.4-1.08-.67-.21-.27-.32-.58-.32-.93v-47.37c0-.35.11-.67.32-.93.21-.27.57-.5,1.08-.69.51-.2,1.19-.35,2.03-.45.85-.11,1.92-.16,3.22-.16s2.38.05,3.22.16c.85.11,1.52.26,2.04.45.51.2.87.43,1.08.69.21.27.32.58.32.93v47.37Z"/>
      <path class="cls-2" d="M187.72,504.51c0,3.23-.59,6.1-1.77,8.62-1.18,2.52-2.82,4.66-4.92,6.41-2.1,1.76-4.56,3.08-7.4,3.96-2.84.89-5.89,1.33-9.17,1.33-2.29,0-4.41-.2-6.37-.59-1.96-.39-3.7-.87-5.23-1.44-1.53-.57-2.82-1.15-3.86-1.76-1.04-.6-1.76-1.12-2.17-1.54-.41-.43-.71-.97-.9-1.62-.19-.66-.29-1.53-.29-2.63,0-.78.03-1.43.11-1.94.07-.51.18-.93.32-1.25.14-.32.32-.54.53-.67.21-.12.46-.19.74-.19.49,0,1.19.3,2.09.9.9.6,2.05,1.26,3.46,1.97,1.41.71,3.11,1.38,5.1,2,1.99.62,4.29.93,6.9.93,1.97,0,3.78-.27,5.42-.8,1.64-.53,3.05-1.29,4.23-2.26,1.18-.98,2.09-2.17,2.72-3.59s.95-3.03.95-4.84c0-1.95-.44-3.62-1.32-5-.88-1.38-2.04-2.6-3.49-3.65-1.45-1.05-3.09-2-4.94-2.87s-3.74-1.76-5.68-2.66c-1.94-.91-3.82-1.91-5.66-3.01-1.83-1.1-3.47-2.39-4.92-3.88-1.45-1.49-2.62-3.24-3.51-5.24s-1.35-4.41-1.35-7.21.52-5.44,1.56-7.69c1.04-2.25,2.48-4.14,4.33-5.67s4.05-2.69,6.61-3.49c2.55-.8,5.31-1.2,8.27-1.2,1.51,0,3.04.13,4.57.4,1.53.27,2.98.62,4.33,1.06,1.36.44,2.56.94,3.62,1.49,1.06.55,1.75.99,2.09,1.33.33.34.55.6.66.8.11.2.19.44.26.75.07.3.12.67.16,1.09.03.43.05.98.05,1.65,0,.64-.03,1.21-.08,1.7-.05.5-.13.91-.24,1.25-.11.34-.26.58-.45.75-.19.16-.41.24-.66.24-.39,0-1-.25-1.82-.75-.83-.5-1.84-1.06-3.04-1.68-1.2-.62-2.62-1.19-4.25-1.7-1.64-.51-3.48-.77-5.52-.77-1.9,0-3.56.26-4.97.77-1.41.51-2.57,1.2-3.49,2.05-.92.85-1.6,1.86-2.06,3.03-.46,1.17-.69,2.41-.69,3.73,0,1.92.44,3.57,1.32,4.95.88,1.38,2.05,2.61,3.51,3.67,1.46,1.06,3.13,2.04,5,2.93,1.87.89,3.77,1.78,5.71,2.69,1.94.9,3.84,1.9,5.71,2.98,1.87,1.08,3.53,2.36,4.99,3.83,1.46,1.47,2.64,3.21,3.54,5.22.9,2,1.35,4.37,1.35,7.1Z"/>
      <path class="cls-2" d="M235.56,522.56c0,.43-.14.75-.42.96-.28.21-.67.37-1.16.48-.49.11-1.22.16-2.17.16s-1.65-.05-2.19-.16c-.55-.11-.94-.27-1.19-.48-.25-.21-.37-.53-.37-.96v-4.79c-2.08,2.24-4.4,3.97-6.95,5.22-2.56,1.24-5.26,1.86-8.11,1.86-2.5,0-4.77-.33-6.79-.99-2.03-.66-3.75-1.6-5.18-2.85-1.43-1.24-2.54-2.77-3.33-4.58-.79-1.81-1.19-3.87-1.19-6.17,0-2.7.55-5.04,1.64-7.03,1.09-1.99,2.66-3.64,4.7-4.95,2.04-1.31,4.55-2.3,7.51-2.95,2.96-.66,6.29-.98,9.99-.98h6.55v-3.73c0-1.84-.19-3.48-.58-4.9-.39-1.42-1.01-2.6-1.88-3.54-.86-.94-1.98-1.65-3.36-2.13-1.37-.48-3.07-.72-5.07-.72-2.15,0-4.08.26-5.79.77-1.71.51-3.21,1.08-4.49,1.7-1.29.62-2.36,1.19-3.22,1.7-.86.51-1.51.77-1.93.77-.28,0-.53-.07-.74-.21-.21-.14-.4-.35-.55-.64-.16-.28-.27-.65-.34-1.09-.07-.44-.11-.93-.11-1.46,0-.89.06-1.59.18-2.1.12-.51.42-1,.9-1.46.48-.46,1.29-1,2.46-1.62,1.16-.62,2.5-1.19,4.02-1.7,1.51-.51,3.17-.94,4.97-1.28s3.61-.51,5.44-.51c3.42,0,6.32.39,8.72,1.17,2.4.78,4.33,1.92,5.81,3.43,1.48,1.51,2.55,3.38,3.22,5.62s1,4.84,1,7.82v32.31ZM226.89,500.68h-7.45c-2.4,0-4.48.21-6.24.61-1.76.41-3.22,1.01-4.39,1.81-1.16.8-2.02,1.76-2.56,2.87-.55,1.12-.82,2.4-.82,3.86,0,2.48.78,4.46,2.35,5.93,1.57,1.47,3.76,2.21,6.58,2.21,2.29,0,4.41-.58,6.37-1.76,1.96-1.17,4.01-2.96,6.16-5.38v-10.17Z"/>
      <path class="cls-2" d="M261.3,524.63c0,3.55-.26,6.41-.79,8.59-.53,2.18-1.36,4.02-2.48,5.51-1.13,1.49-2.57,2.62-4.33,3.38-1.76.76-3.89,1.14-6.4,1.14-1.13,0-2.09-.07-2.88-.21s-1.4-.3-1.82-.48c-.42-.18-.71-.38-.87-.61-.16-.23-.27-.5-.34-.8-.07-.3-.11-.61-.13-.93s-.03-.71-.03-1.17c0-.64.03-1.19.08-1.65.05-.46.14-.83.26-1.12.12-.28.26-.49.42-.61.16-.12.36-.19.61-.19.21,0,.63.04,1.24.13.62.09,1.33.13,2.14.13,1.16,0,2.16-.18,2.99-.53.83-.36,1.51-.93,2.04-1.73.53-.8.92-1.84,1.16-3.11.25-1.28.37-3.21.37-5.8v-49.98c0-.25.07-.48.21-.69.14-.21.38-.39.71-.53.33-.14.78-.25,1.35-.32.56-.07,1.27-.11,2.11-.11s1.55.04,2.11.11c.56.07,1.01.18,1.35.32.33.14.57.32.71.53.14.21.21.44.21.69v50.03ZM262.3,458.43c0,2.06-.39,3.46-1.16,4.2-.78.75-2.2,1.12-4.28,1.12s-3.44-.36-4.18-1.09c-.74-.73-1.11-2.1-1.11-4.12s.38-3.46,1.14-4.2c.76-.75,2.17-1.12,4.25-1.12s3.49.36,4.23,1.09c.74.73,1.11,2.1,1.11,4.12Z"/>
      <path class="cls-2" d="M313.31,522.56c0,.43-.14.75-.42.96-.28.21-.67.37-1.16.48-.49.11-1.22.16-2.17.16s-1.65-.05-2.19-.16c-.55-.11-.94-.27-1.19-.48-.25-.21-.37-.53-.37-.96v-4.79c-2.08,2.24-4.4,3.97-6.95,5.22-2.56,1.24-5.26,1.86-8.11,1.86-2.5,0-4.77-.33-6.79-.99-2.03-.66-3.75-1.6-5.18-2.85s-2.54-2.77-3.33-4.58c-.79-1.81-1.19-3.87-1.19-6.17,0-2.7.55-5.04,1.64-7.03,1.09-1.99,2.66-3.64,4.7-4.95,2.04-1.31,4.55-2.3,7.51-2.95,2.96-.66,6.29-.98,9.99-.98h6.55v-3.73c0-1.84-.19-3.48-.58-4.9-.39-1.42-1.01-2.6-1.88-3.54-.86-.94-1.98-1.65-3.36-2.13-1.37-.48-3.07-.72-5.07-.72-2.15,0-4.08.26-5.79.77-1.71.51-3.21,1.08-4.49,1.7-1.29.62-2.36,1.19-3.22,1.7-.86.51-1.51.77-1.93.77-.28,0-.53-.07-.74-.21-.21-.14-.4-.35-.55-.64-.16-.28-.27-.65-.34-1.09-.07-.44-.11-.93-.11-1.46,0-.89.06-1.59.18-2.1.12-.51.42-1,.9-1.46.48-.46,1.29-1,2.46-1.62s2.5-1.19,4.02-1.7,3.17-.94,4.97-1.28,3.61-.51,5.44-.51c3.42,0,6.32.39,8.72,1.17,2.4.78,4.33,1.92,5.81,3.43,1.48,1.51,2.55,3.38,3.22,5.62.67,2.24,1,4.84,1,7.82v32.31ZM304.64,500.68h-7.45c-2.4,0-4.48.21-6.24.61-1.76.41-3.22,1.01-4.39,1.81-1.16.8-2.02,1.76-2.56,2.87-.55,1.12-.82,2.4-.82,3.86,0,2.48.78,4.46,2.35,5.93,1.57,1.47,3.76,2.21,6.58,2.21,2.29,0,4.41-.58,6.37-1.76,1.96-1.17,4.01-2.96,6.16-5.38v-10.17Z"/>
      <path class="cls-2" d="M370.07,522.51c0,.28-.06.53-.18.74-.12.21-.34.38-.63.51-.3.12-.7.22-1.19.29-.49.07-1.09.11-1.8.11-.74,0-1.36-.04-1.85-.11-.49-.07-.9-.17-1.22-.29s-.55-.29-.69-.51-.21-.46-.21-.74v-6.33c-2.5,2.73-5.1,4.86-7.8,6.39-2.7,1.53-5.65,2.29-8.85,2.29-3.49,0-6.47-.68-8.93-2.05-2.47-1.37-4.47-3.21-6-5.54-1.53-2.32-2.65-5.06-3.36-8.2-.71-3.14-1.06-6.45-1.06-9.93,0-4.12.44-7.83,1.32-11.15.88-3.32,2.18-6.15,3.91-8.49s3.87-4.14,6.42-5.4,5.5-1.89,8.85-1.89c2.78,0,5.33.61,7.64,1.84,2.31,1.22,4.59,3.03,6.84,5.4v-27.83c0-.25.06-.49.18-.72.12-.23.36-.41.71-.53.35-.12.8-.23,1.35-.32.55-.09,1.24-.13,2.09-.13s1.6.04,2.17.13c.56.09,1,.2,1.32.32s.55.3.71.53c.16.23.24.47.24.72v70.89ZM361.3,488.81c-2.36-2.94-4.64-5.19-6.84-6.73-2.2-1.54-4.5-2.32-6.9-2.32-2.22,0-4.1.53-5.66,1.6s-2.81,2.47-3.78,4.2c-.97,1.74-1.67,3.71-2.11,5.91-.44,2.2-.66,4.44-.66,6.71,0,2.41.18,4.77.55,7.08s1.01,4.36,1.93,6.15c.92,1.79,2.13,3.23,3.65,4.31,1.51,1.08,3.42,1.62,5.71,1.62,1.16,0,2.28-.16,3.36-.48,1.08-.32,2.18-.85,3.3-1.6,1.13-.75,2.31-1.71,3.54-2.9,1.23-1.19,2.54-2.65,3.91-4.39v-19.16Z"/>
    </g>
  </g>
  <g id="Formen">
    <polygon id="_3" data-name="3" class="cls-3" points="17.04 423.72 62.2 387.26 63.92 113.2 316.69 110.61 435.68 0 105.34 0 127.24 41.41 331.97 39.27 301.39 70.07 17.28 74.17 17.04 423.72"/>
    <path id="_2" data-name="2" class="cls-3" d="M119.96,132.43l16.81,4.12v58.31l10.98-7.2,9.95,7.2v-49.73l33.44,20.58s49.22-38.41,71.51-33.27v90.12s-28.81-7.11-71.34,34.73c0,0-23.32-28.64-71.34-34.73v-90.12Z"/>
    <path id="_1" data-name="1" class="cls-3" d="M22.98,430.91l45.31-36.58,249.5-7.88,7.62-266.16L444.41,7.3l-3.28,311.71-37.16-22.17V114.86l-29.62,18.34c-2.49,97.73-4.98,195.46-7.47,293.19l-343.91,4.53Z"/>
  </g>
</svg>